<svg width="24" height="24" viewBox="0 0 24 24" fill="none" xmlns="http://www.w3.org/2000/svg">
<path d="M12.25 1C10.0628 1.00258 7.96584 1.8726 6.41923 3.41922C4.87261 4.96584 4.00259 7.06276 4.00001 9.25C3.99739 11.0374 4.58124 12.7763 5.66201 14.2C5.66201 14.2 5.88701 14.4963 5.92376 14.539L12.25 22L18.5793 14.5353C18.6123 14.4955 18.838 14.2 18.838 14.2L18.8388 14.1978C19.919 12.7747 20.5026 11.0366 20.5 9.25C20.4974 7.06276 19.6274 4.96584 18.0808 3.41922C16.5342 1.8726 14.4373 1.00258 12.25 1V1ZM12.25 12.25C11.6567 12.25 11.0766 12.0741 10.5833 11.7444C10.09 11.4148 9.70543 10.9462 9.47837 10.3981C9.25131 9.84987 9.1919 9.24667 9.30765 8.66473C9.42341 8.08279 9.70913 7.54824 10.1287 7.12868C10.5482 6.70912 11.0828 6.4234 11.6647 6.30764C12.2467 6.19189 12.8499 6.2513 13.3981 6.47836C13.9462 6.70542 14.4148 7.08994 14.7444 7.58329C15.0741 8.07664 15.25 8.65666 15.25 9.25C15.249 10.0453 14.9326 10.8078 14.3702 11.3702C13.8078 11.9326 13.0454 12.249 12.25 12.25V12.25Z" fill="white"/>
</svg>
