<svg width="24" height="24" viewBox="0 0 24 24" fill="none" xmlns="http://www.w3.org/2000/svg">
<path d="M20.454 6.67906C21.3504 6.14315 22.0212 5.2993 22.341 4.30506C21.4987 4.80488 20.577 5.15696 19.616 5.34606C18.9678 4.66041 18.1121 4.20698 17.1808 4.05566C16.2495 3.90435 15.2943 4.06354 14.4624 4.50872C13.6305 4.95389 12.9681 5.66032 12.5773 6.51912C12.1866 7.37792 12.0891 8.34141 12.3 9.26106C10.5939 9.17541 8.92484 8.73194 7.40122 7.95945C5.87759 7.18695 4.53344 6.1027 3.456 4.77706C2.90806 5.72217 2.7404 6.84039 2.98705 7.90464C3.2337 8.96888 3.87618 9.89935 4.784 10.5071C4.10271 10.4852 3.43653 10.3007 2.841 9.96906V10.0231C2.84119 11.014 3.18413 11.9744 3.81166 12.7414C4.43919 13.5084 5.31268 14.0347 6.284 14.2311C5.65206 14.403 4.98921 14.4283 4.346 14.3051C4.62073 15.1574 5.15471 15.9027 5.87341 16.4369C6.59211 16.9711 7.45966 17.2676 8.355 17.2851C6.83483 18.4782 4.95748 19.1252 3.025 19.1221C2.682 19.1221 2.34 19.1021 2 19.0631C3.96241 20.324 6.24638 20.9934 8.579 20.9911C10.1856 21.0021 11.7784 20.6938 13.2648 20.084C14.7513 19.4742 16.1017 18.5752 17.2377 17.4391C18.3737 16.303 19.2727 14.9524 19.8823 13.466C20.492 11.9795 20.8002 10.3867 20.789 8.78006C20.789 8.59406 20.785 8.40906 20.776 8.22506C21.6165 7.61768 22.3418 6.86522 22.918 6.00306C22.135 6.35011 21.3045 6.57797 20.454 6.67906V6.67906Z" fill="white"/>
</svg>
